<svg xmlns="http://www.w3.org/2000/svg" viewBox="0 0 684 392" width="684" height="392" role="img" aria-label="declares measurements, runs on node, reaches none, held reads lang|form/prose/**|form/template/**|prose/*/measure/*|measure/**, readings reads lang|form/prose/**|prose/*/measure/*|measure/**, against topos sha256:a87ffd5ab77a99b9e40cc720acfdf0ee7f36d156c72085a20db1232b0653c1dd, packed as sha256:3252cbb877d9ca0c9ea990828c1490999de3d4853990d53d6bbd31861e6bb780, a place adopts it with uses/topos-measure and run by the node host">
<style>
text{font:12px ui-monospace,SFMono-Regular,Menlo,monospace;fill:#59636e}rect{fill:none;stroke:#8c959f}line{stroke:#2da44e}
@media (prefers-color-scheme:dark){text{fill:#9198a1}}
</style>
<rect x="20" y="8" width="644" height="36" rx="6"/>
<text x="36" y="30">declares measurements, runs on node, reaches none</text>
<rect x="20" y="64" width="644" height="36" rx="6"/>
<text x="36" y="86">held reads lang|form/prose/**|form/template/**|prose/*/measure/*|measure/**</text>
<line x1="342" y1="44" x2="342" y2="64"/>
<rect x="20" y="120" width="644" height="36" rx="6"/>
<text x="36" y="142">readings reads lang|form/prose/**|prose/*/measure/*|measure/**</text>
<line x1="342" y1="100" x2="342" y2="120"/>
<rect x="20" y="176" width="644" height="36" rx="6"/>
<text x="36" y="198">against topos sha256:a87ffd5ab77a99b9e40cc720acfdf0ee7f36d156c72085a20db1232b0653c1dd</text>
<line x1="342" y1="156" x2="342" y2="176"/>
<rect x="20" y="232" width="644" height="36" rx="6"/>
<text x="36" y="254">packed as sha256:3252cbb877d9ca0c9ea990828c1490999de3d4853990d53d6bbd31861e6bb780</text>
<line x1="342" y1="212" x2="342" y2="232"/>
<rect x="20" y="288" width="644" height="36" rx="6"/>
<text x="36" y="310">a place adopts it with uses/topos-measure</text>
<line x1="342" y1="268" x2="342" y2="288"/>
<rect x="20" y="344" width="644" height="36" rx="6"/>
<text x="36" y="366">run by the node host</text>
<line x1="342" y1="324" x2="342" y2="344"/>
</svg>
